HIERARCHY
ROOT hip
{
	OFFSET 0.000000 0.000000 0.000000 
	CHANNELS 6 Xposition Yposition Zposition Xrotation Zrotation Yrotation
	JOINT abdomen
	{
		OFFSET 0.000000 3.402643 0.000000 
		CHANNELS 3 Xrotation Zrotation Yrotation
		JOINT chest
		{
			OFFSET 0.000000 8.438565 -0.680529 
			CHANNELS 3 Xrotation Zrotation Yrotation
			JOINT neck
			{
				OFFSET 0.000000 10.207942 -0.272212 
				CHANNELS 3 Xrotation Zrotation Yrotation
				JOINT head
				{
					OFFSET 0.000000 3.130431 0.000000 
					CHANNELS 3 Xrotation Zrotation Yrotation
					End Site
					{
						OFFSET 0.000000 3.130435 0.000000 
					}
				}
			}
			JOINT lCollar
			{
				OFFSET 3.470700 6.669187 -0.816635 
				CHANNELS 3 Yrotation Zrotation Xrotation
				JOINT lShldr
				{
					OFFSET 3.198488 0.000000 0.000000 
					CHANNELS 3 Zrotation Yrotation Xrotation
					JOINT lForeArm
					{
						OFFSET 10.139888 0.000000 0.000000 
						CHANNELS 3 Yrotation Zrotation Xrotation
						JOINT lHand
						{
							OFFSET 8.370511 0.000000 0.000000 
							CHANNELS 3 Zrotation Yrotation Xrotation
							End Site
							{
								OFFSET 4.083176 0.000000 0.000000 
							}
						}
					}
				}
			}
			JOINT rCollar
			{
				OFFSET -3.470700 6.669187 -0.816635 
				CHANNELS 3 Yrotation Zrotation Xrotation
				JOINT rShldr
				{
					OFFSET -3.198488 0.000000 0.000000 
					CHANNELS 3 Zrotation Yrotation Xrotation
					JOINT rForeArm
					{
						OFFSET -10.139888 0.000000 0.000000 
						CHANNELS 3 Yrotation Zrotation Xrotation
						JOINT rHand
						{
							OFFSET -8.370511 0.000000 0.000000 
							CHANNELS 3 Zrotation Yrotation Xrotation
							End Site
							{
								OFFSET -4.083176 0.000000 0.000000 
							}
						}
					}
				}
			}
		}
	}
	JOINT lThigh
	{
		OFFSET 5.308129 -1.633274 1.361059 
		CHANNELS 3 Xrotation Zrotation Yrotation
		JOINT lShin
		{
			OFFSET -2.041588 -20.007561 0.000000 
			CHANNELS 3 Xrotation Zrotation Yrotation
			JOINT lFoot
			{
				OFFSET 0.000000 -19.190928 -1.224953 
				CHANNELS 3 Xrotation Yrotation Zrotation
				End Site
				{
					OFFSET 0.000000 -2.449906 4.627600 
				}
			}
		}
	}
	JOINT rThigh
	{
		OFFSET -5.308129 -1.633274 1.361059 
		CHANNELS 3 Xrotation Zrotation Yrotation
		JOINT rShin
		{
			OFFSET 2.041588 -20.007561 0.000000 
			CHANNELS 3 Xrotation Zrotation Yrotation
			JOINT rFoot
			{
				OFFSET 0.000000 -19.190928 -1.224953 
				CHANNELS 3 Xrotation Yrotation Zrotation
				End Site
				{
					OFFSET 0.000000 -2.449906 4.627600 
				}
			}
		}
	}
}
MOTION
Frames: 17
Frame Time: 0.066667
-0.870123 54.397278 -2.568392 0.000000 0.000000 0.000000 -0.681630 -0.095088 0.352148 -0.465137 -0.262665 1.374452 -3.390000 -2.951857 -5.939888 2.080600 0.715500 -39.771942 3.383171 -3.998289 -0.024307 -70.454750 9.628898 15.177438 -19.321789 -10.890677 0.344307 6.593133 0.265749 -0.326617 -3.699056 7.035316 1.393175 70.897041 12.476176 11.842093 14.592017 16.945862 0.833543 -10.101772 -1.530891 -0.795290 -2.666487 3.265805 -0.259606 2.565300 -2.404044 0.527094 0.299140 24.431875 -2.947104 -18.962971 -3.179098 -0.022139 35.829781 3.640898 2.846484 6.782807 -10.384261 0.344403 
-0.870123 54.397278 -2.568392 0.000000 0.000000 0.000000 -1.315874 -0.127212 0.473777 -1.346802 0.055672 1.645467 -3.390000 -2.235318 -5.954480 2.080600 0.715500 -39.769722 5.106801 -1.826437 0.008287 -70.907356 9.368623 14.167158 -15.272217 -12.847526 0.609753 7.357138 0.773820 -0.960083 -3.517865 6.789738 1.139386 71.203796 9.833331 12.204060 15.340865 17.062378 0.798799 -9.877872 0.165355 -0.547159 -4.273472 3.569972 -0.279863 6.339969 -2.564380 0.142282 -0.647672 28.958242 -3.681824 -16.010685 -1.856669 -0.099499 30.634378 3.466874 2.325770 2.476866 -22.213032 -0.498655 
-0.870123 54.397278 -2.568392 0.000000 0.000000 0.000000 -1.950730 -0.161684 0.590988 -2.231269 0.378792 1.904956 -3.390000 -1.432096 -5.970836 2.080600 0.715500 -39.766438 6.859311 0.362856 0.052285 -71.364769 8.986185 13.126657 -11.158358 -14.871037 0.868981 8.150518 1.321102 -1.605863 -3.309113 6.529321 0.873514 71.517136 7.062280 12.591294 16.165365 17.128801 0.754398 -9.621652 1.889765 -0.290915 -3.721123 3.659411 -0.309937 5.570353 -2.496607 0.122595 -0.034405 33.437504 -4.093851 -12.474538 -0.553049 -0.059208 24.228199 3.261822 1.691779 -1.744342 -33.720009 -1.667890 
-0.870123 54.397278 -2.568392 0.000000 0.000000 0.000000 -2.442066 -0.199663 0.659597 -2.925303 0.650688 2.048323 -3.390000 -0.580550 -5.988177 2.080600 0.715500 -39.762688 8.348311 2.132020 0.141773 -71.740082 8.095950 12.178812 -7.680185 -16.752850 1.038045 8.904060 1.933403 -2.162669 -3.014055 6.256598 0.610044 71.790298 4.305158 13.012455 17.168711 16.935490 0.673125 -9.266855 3.353652 -0.054218 -2.970042 3.757413 -0.326642 4.365431 -2.435119 0.146842 0.804225 37.893169 -4.537551 -8.062005 0.747887 0.139129 15.859641 2.954486 0.901593 -5.612553 -44.871235 -3.319774 
-0.870123 54.397278 -2.568393 0.000000 0.000000 0.000000 -2.645750 -0.242304 0.635416 -3.235670 0.815352 1.970970 -3.390001 0.280959 -6.005722 2.080600 0.715500 -39.759068 9.281410 3.043490 0.310837 -71.946404 6.312280 11.446500 -5.537670 -18.284599 1.033000 9.548550 2.636530 -2.529210 -2.573950 5.974100 0.363460 71.976501 1.704100 13.476200 18.454100 16.272800 0.527763 -8.747230 4.268330 0.135273 -2.191566 3.855042 -0.313537 3.103733 -2.366202 0.193153 1.799499 42.302959 -5.075954 -1.955069 2.053081 0.676951 3.949176 2.410567 -0.152510 -6.662319 -55.713173 -4.156878 
-0.870123 54.397278 -2.568393 0.000000 0.000000 0.000000 -2.465971 -0.287393 0.491245 -3.031929 0.835750 1.604438 -3.390001 1.114073 -6.022688 2.080601 0.715500 -39.756157 9.445106 2.783589 0.578275 -71.924057 3.388803 11.020526 -5.217787 -19.297096 0.807987 10.028957 3.422322 -2.631677 -1.969055 5.691187 0.147723 72.035690 -0.632620 13.983563 20.053650 15.017216 0.306662 -8.031296 4.428984 0.256581 -7.364295 4.787322 -0.175974 13.433862 -2.892997 -0.690275 -0.019804 34.775402 -4.056282 -2.499734 1.883239 0.660552 4.540076 2.443855 -0.175724 -5.493952 -49.876194 -3.215902 
-0.870123 54.397278 -2.568393 0.000000 0.000000 0.000000 -2.000198 -0.319227 0.267821 -2.434821 0.750743 1.024814 -3.390000 1.880430 -6.038293 2.080600 0.715500 -39.754536 8.941448 1.534210 0.901741 -71.722336 -0.363790 10.863413 -6.355543 -19.777859 0.469491 10.346998 4.146731 -2.506172 -1.335630 5.444524 -0.025301 71.954697 -2.732159 14.505095 21.715166 13.389739 0.060432 -7.226680 3.966292 0.315467 -11.228319 5.708690 -0.101356 20.981335 -3.218267 -1.394517 1.143677 26.989325 -4.106469 -2.820105 1.715477 0.586748 4.666078 2.460968 -0.245899 -4.410954 -43.925655 -2.575706 
-0.870123 54.397278 -2.568392 0.000000 0.000000 0.000000 -1.394223 -0.318729 0.022863 -1.627886 0.618168 0.344324 -3.390000 2.541672 -6.051757 2.080600 0.715500 -39.754803 7.951385 -0.398864 1.223600 -71.417809 -4.495545 10.905619 -8.372957 -19.753590 0.162083 10.518579 4.631741 -2.216279 -0.848939 5.277608 -0.144268 71.727112 -4.655532 15.003730 23.115385 11.697511 -0.144754 -6.475788 3.094805 0.324377 -14.281798 6.632016 -0.052731 26.813417 -3.455324 -1.942038 3.135271 19.010460 -4.151060 -3.063282 1.542536 0.490979 4.645724 2.503123 -0.324197 -3.465971 -37.951767 -2.143611 
-0.870123 54.397278 -2.568392 0.000000 0.000000 0.000000 -0.793838 -0.266826 -0.185906 -0.794663 0.495862 -0.324808 -3.390000 3.059437 -6.062301 2.080600 0.715500 -39.757561 6.655861 -2.709845 1.486219 -71.087036 -8.556500 11.077600 -10.692042 -19.250990 0.030335 10.559607 4.699334 -1.825581 -0.684245 5.233935 -0.197835 71.346535 -6.463753 15.442404 23.931040 10.247672 -0.242721 -5.921025 2.029077 0.295755 -16.888359 7.553679 -0.046435 31.671673 -3.614618 -2.420991 5.572731 10.943906 -4.148184 -1.980237 1.415116 0.499507 1.836313 2.426610 -0.618636 -1.534902 -31.910368 -1.971122 
-0.870123 54.397278 -2.568392 0.000000 0.000000 0.000000 -0.344833 -0.144441 -0.300768 -0.118688 0.441661 -0.870358 -3.390001 3.395367 -6.069143 2.080600 0.715500 -39.763401 5.235818 -5.092953 1.631963 -70.806580 -12.096705 11.309809 -12.734818 -18.296761 0.218817 10.485980 4.171493 -1.397661 -1.016812 5.357001 -0.174660 70.806541 -8.217837 15.784049 23.838865 9.347356 -0.167294 -5.704794 0.983658 0.242048 -19.301210 8.471367 -0.130686 36.039032 -3.729274 -2.860523 8.257197 2.815037 -4.158520 -1.350519 1.278733 0.486886 -0.017485 2.378119 -0.805585 0.050009 -25.947224 -1.722960 
-0.870123 54.397278 -2.568392 0.000000 0.000000 0.000000 -0.193000 0.067500 -0.264000 0.216500 0.513400 -1.180100 -3.390000 3.511100 -6.071500 2.080600 0.715500 -39.772900 3.872200 -7.242400 1.603200 -70.653000 -14.666200 11.532700 -13.923300 -16.917601 0.872100 10.313600 2.870200 -0.996100 -2.021900 5.690300 -0.063400 70.100700 -9.978800 15.991600 22.515600 9.303700 0.147700 -5.969500 0.173100 0.175700 -21.221666 9.224466 -0.327135 39.419151 -3.768141 -3.203470 11.374269 -5.218721 -4.137878 -1.314923 1.087584 0.460654 -0.655209 2.359016 -0.862413 1.085552 -19.942383 -1.437198 
-0.870123 54.397278 -2.568390 0.000000 0.000000 0.000000 -0.423927 0.376700 -0.040709 0.096750 0.745578 -1.176724 -3.389999 3.381206 -6.068853 2.080600 0.715500 -39.786430 2.715961 -8.908522 1.365861 -70.677689 -15.919272 11.696374 -13.867691 -15.171733 2.059529 10.058010 0.725394 -0.671950 -3.776804 6.250345 0.139298 69.245682 -11.736978 16.037159 19.804096 10.304270 0.733333 -6.793592 -0.247095 0.106488 -19.901569 8.575375 -0.191851 35.107861 -3.718755 -2.766876 8.345976 -5.330074 -4.376060 -1.662367 1.119412 0.453374 0.072859 2.388157 -0.790788 1.045086 -15.355959 -1.428819 
-0.870123 54.397278 -2.568390 0.000000 0.000000 0.000000 -0.882394 0.745367 0.312690 -0.314552 1.079343 -0.922573 -3.389998 3.037003 -6.061843 2.080600 0.715500 -39.803436 1.798107 -10.066111 0.980147 -70.831444 -15.927185 11.829523 -12.930956 -13.243510 3.549532 9.734698 -1.901151 -0.423984 -5.966931 6.945721 0.404821 68.350555 -13.199991 15.929518 16.211720 12.058347 1.480259 -7.999709 -0.357622 0.033516 -17.957764 7.766128 -0.147562 29.642242 -3.575642 -2.213035 5.854002 -5.343752 -4.550256 -2.571847 1.096276 0.456479 1.966423 2.424851 -0.591549 0.515682 -10.710396 -1.377087 
-0.870123 54.397278 -2.568389 0.000000 0.000000 0.000000 -1.352981 1.124336 0.716959 -0.784633 1.432505 -0.514902 -3.389998 2.521472 -6.051344 2.080600 0.715499 -39.823166 1.119656 -10.746080 0.529823 -71.039925 -14.865440 11.980485 -11.664243 -11.348805 5.035318 9.358334 -4.539713 -0.238799 -8.179730 7.658033 0.696564 67.547470 -14.004787 15.686637 12.411945 14.155651 2.244033 -9.346541 -0.298223 -0.046782 -15.560043 6.956973 -0.146860 23.182634 -3.354400 -1.588575 3.914980 -5.416391 -4.668116 -3.827582 1.039761 0.440675 4.572288 2.534849 -0.317911 -0.241360 -6.098761 -1.398830 
-0.870123 54.397278 -2.568389 0.000000 0.000000 0.000000 -1.620263 1.464442 1.092856 -1.080720 1.722874 -0.050970 -3.389998 1.874315 -6.038165 2.080600 0.715499 -39.844917 0.681628 -10.979341 0.098656 -71.228790 -12.909544 12.197598 -10.618707 -9.703500 6.210090 8.942570 -6.720559 -0.104193 -10.002640 8.268885 0.977926 66.968597 -13.788309 15.326477 9.078271 16.185898 2.880206 -10.592777 -0.208641 -0.137971 -12.139167 6.122494 -0.139194 14.632142 -2.979357 -0.805557 3.036955 -5.643313 -4.772122 -4.070535 1.058821 0.519295 5.064832 2.496617 -0.221199 -0.128407 -1.478812 -1.437166 
-0.870123 54.397278 -2.568389 0.000000 0.000000 0.000000 -1.468820 1.716520 1.361140 -0.970042 1.868260 0.371968 -3.389998 1.132030 -6.023049 2.080600 0.715500 -39.868038 0.485041 -10.796800 -0.229590 -71.323700 -10.235000 12.529200 -10.345500 -8.523470 6.767050 8.500099 -7.973960 -0.009192 -11.023100 8.659880 1.212300 66.746101 -12.187500 14.867000 6.884190 17.738800 3.244330 -11.497100 -0.228620 -0.243615 -6.945799 5.241624 -0.138754 2.393202 -2.336271 0.215008 5.297647 -6.091641 -4.756400 -4.101872 1.071013 0.595178 5.125047 2.479475 -0.130308 0.152460 3.140838 -1.518056 
-0.870123 54.397278 -2.568389 0.000000 0.000000 0.000000 -0.795954 1.833073 1.459826 -0.334964 1.805019 0.678168 -3.389998 0.328074 -6.006677 2.080600 0.715500 -39.891907 0.519753 -10.243211 -0.392983 -71.270409 -7.022392 13.006783 -11.241724 -7.959781 6.492891 8.042759 -7.971205 0.055911 -10.952075 8.747268 1.372441 66.967491 -8.988166 14.328492 6.311324 18.509911 3.234759 -11.883401 -0.462696 -0.365499 -6.834558 4.928483 -0.220409 3.600483 -2.392675 0.144141 4.043898 -1.619066 -4.483599 -8.556760 0.167646 0.292979 14.237037 2.875070 0.690745 -0.717390 2.384727 -1.088768 
